<svg xmlns="http://www.w3.org/2000/svg" viewBox="0 0 100 100">
  <!-- rose — 經期 -->
  <path fill="#b5645c" d="M33.64,29.79 L34.18,29.29 L34.67,28.71 L35.12,28.04 L35.53,27.28 L35.92,26.44 L36.29,25.53 L36.67,24.54 L37.07,23.49 L37.49,22.38 L37.94,21.24 L38.44,20.07 L38.98,18.89 L39.59,17.72 L40.26,16.58 L40.99,15.48 L41.79,14.44 L42.65,13.47 L43.57,12.60 L44.55,11.83 L45.58,11.19 L46.65,10.68 L47.75,10.30 L48.87,10.08 L50.00,10.00 L51.13,10.08 L52.25,10.30 L53.35,10.68 L54.42,11.19 L55.45,11.83 L56.43,12.60 L57.35,13.47 L58.21,14.44 L59.01,15.48 L59.74,16.58 L60.41,17.72 L61.02,18.89 L61.56,20.07 L62.06,21.24 L62.51,22.38 L62.93,23.49 L63.33,24.54 L63.71,25.53 L64.08,26.44 L64.47,27.28 L64.88,28.04 L65.33,28.71 L65.82,29.29 L66.36,29.79 L62.59,34.46 L62.14,34.11 L61.68,33.77 L61.22,33.44 L60.75,33.13 L60.26,32.83 L59.77,32.55 L59.27,32.28 L58.77,32.02 L58.25,31.78 L57.73,31.56 L57.21,31.34 L56.68,31.15 L56.14,30.97 L55.60,30.80 L55.05,30.65 L54.50,30.51 L53.94,30.39 L53.39,30.29 L52.83,30.20 L52.26,30.13 L51.70,30.07 L51.13,30.03 L50.57,30.01 L50.00,30.00 L49.43,30.01 L48.87,30.03 L48.30,30.07 L47.74,30.13 L47.17,30.20 L46.61,30.29 L46.06,30.39 L45.50,30.51 L44.95,30.65 L44.40,30.80 L43.86,30.97 L43.32,31.15 L42.79,31.34 L42.27,31.56 L41.75,31.78 L41.23,32.02 L40.73,32.28 L40.23,32.55 L39.74,32.83 L39.25,33.13 L38.78,33.44 L38.32,33.77 L37.86,34.11 L37.41,34.46 Z" />
  <!-- amber — 濾泡期 -->
  <path fill="#c98a2b" d="M70.21,33.64 L70.71,34.18 L71.29,34.67 L71.96,35.12 L72.72,35.53 L73.56,35.92 L74.47,36.29 L75.46,36.67 L76.51,37.07 L77.62,37.49 L78.76,37.94 L79.93,38.44 L81.11,38.98 L82.28,39.59 L83.42,40.26 L84.52,40.99 L85.56,41.79 L86.53,42.65 L87.40,43.57 L88.17,44.55 L88.81,45.58 L89.32,46.65 L89.70,47.75 L89.92,48.87 L90.00,50.00 L89.92,51.13 L89.70,52.25 L89.32,53.35 L88.81,54.42 L88.17,55.45 L87.40,56.43 L86.53,57.35 L85.56,58.21 L84.52,59.01 L83.42,59.74 L82.28,60.41 L81.11,61.02 L79.93,61.56 L78.76,62.06 L77.62,62.51 L76.51,62.93 L75.46,63.33 L74.47,63.71 L73.56,64.08 L72.72,64.47 L71.96,64.88 L71.29,65.33 L70.71,65.82 L70.21,66.36 L65.54,62.59 L65.89,62.14 L66.23,61.68 L66.56,61.22 L66.87,60.75 L67.17,60.26 L67.45,59.77 L67.72,59.27 L67.98,58.77 L68.22,58.25 L68.44,57.73 L68.66,57.21 L68.85,56.68 L69.03,56.14 L69.20,55.60 L69.35,55.05 L69.49,54.50 L69.61,53.94 L69.71,53.39 L69.80,52.83 L69.87,52.26 L69.93,51.70 L69.97,51.13 L69.99,50.57 L70.00,50.00 L69.99,49.43 L69.97,48.87 L69.93,48.30 L69.87,47.74 L69.80,47.17 L69.71,46.61 L69.61,46.06 L69.49,45.50 L69.35,44.95 L69.20,44.40 L69.03,43.86 L68.85,43.32 L68.66,42.79 L68.44,42.27 L68.22,41.75 L67.98,41.23 L67.72,40.73 L67.45,40.23 L67.17,39.74 L66.87,39.25 L66.56,38.78 L66.23,38.32 L65.89,37.86 L65.54,37.41 Z" />
  <!-- mint — 排卵 -->
  <path fill="#4f9d8c" d="M66.36,70.21 L65.82,70.71 L65.33,71.29 L64.88,71.96 L64.47,72.72 L64.08,73.56 L63.71,74.47 L63.33,75.46 L62.93,76.51 L62.51,77.62 L62.06,78.76 L61.56,79.93 L61.02,81.11 L60.41,82.28 L59.74,83.42 L59.01,84.52 L58.21,85.56 L57.35,86.53 L56.43,87.40 L55.45,88.17 L54.42,88.81 L53.35,89.32 L52.25,89.70 L51.13,89.92 L50.00,90.00 L48.87,89.92 L47.75,89.70 L46.65,89.32 L45.58,88.81 L44.55,88.17 L43.57,87.40 L42.65,86.53 L41.79,85.56 L40.99,84.52 L40.26,83.42 L39.59,82.28 L38.98,81.11 L38.44,79.93 L37.94,78.76 L37.49,77.62 L37.07,76.51 L36.67,75.46 L36.29,74.47 L35.92,73.56 L35.53,72.72 L35.12,71.96 L34.67,71.29 L34.18,70.71 L33.64,70.21 L37.41,65.54 L37.86,65.89 L38.32,66.23 L38.78,66.56 L39.25,66.87 L39.74,67.17 L40.23,67.45 L40.73,67.72 L41.23,67.98 L41.75,68.22 L42.27,68.44 L42.79,68.66 L43.32,68.85 L43.86,69.03 L44.40,69.20 L44.95,69.35 L45.50,69.49 L46.06,69.61 L46.61,69.71 L47.17,69.80 L47.74,69.87 L48.30,69.93 L48.87,69.97 L49.43,69.99 L50.00,70.00 L50.57,69.99 L51.13,69.97 L51.70,69.93 L52.26,69.87 L52.83,69.80 L53.39,69.71 L53.94,69.61 L54.50,69.49 L55.05,69.35 L55.60,69.20 L56.14,69.03 L56.68,68.85 L57.21,68.66 L57.73,68.44 L58.25,68.22 L58.77,67.98 L59.27,67.72 L59.77,67.45 L60.26,67.17 L60.75,66.87 L61.22,66.56 L61.68,66.23 L62.14,65.89 L62.59,65.54 Z" />
  <!-- slate — 黃體期 -->
  <path fill="#6f8fb0" d="M29.79,66.36 L29.29,65.82 L28.71,65.33 L28.04,64.88 L27.28,64.47 L26.44,64.08 L25.53,63.71 L24.54,63.33 L23.49,62.93 L22.38,62.51 L21.24,62.06 L20.07,61.56 L18.89,61.02 L17.72,60.41 L16.58,59.74 L15.48,59.01 L14.44,58.21 L13.47,57.35 L12.60,56.43 L11.83,55.45 L11.19,54.42 L10.68,53.35 L10.30,52.25 L10.08,51.13 L10.00,50.00 L10.08,48.87 L10.30,47.75 L10.68,46.65 L11.19,45.58 L11.83,44.55 L12.60,43.57 L13.47,42.65 L14.44,41.79 L15.48,40.99 L16.58,40.26 L17.72,39.59 L18.89,38.98 L20.07,38.44 L21.24,37.94 L22.38,37.49 L23.49,37.07 L24.54,36.67 L25.53,36.29 L26.44,35.92 L27.28,35.53 L28.04,35.12 L28.71,34.67 L29.29,34.18 L29.79,33.64 L34.46,37.41 L34.11,37.86 L33.77,38.32 L33.44,38.78 L33.13,39.25 L32.83,39.74 L32.55,40.23 L32.28,40.73 L32.02,41.23 L31.78,41.75 L31.56,42.27 L31.34,42.79 L31.15,43.32 L30.97,43.86 L30.80,44.40 L30.65,44.95 L30.51,45.50 L30.39,46.06 L30.29,46.61 L30.20,47.17 L30.13,47.74 L30.07,48.30 L30.03,48.87 L30.01,49.43 L30.00,50.00 L30.01,50.57 L30.03,51.13 L30.07,51.70 L30.13,52.26 L30.20,52.83 L30.29,53.39 L30.39,53.94 L30.51,54.50 L30.65,55.05 L30.80,55.60 L30.97,56.14 L31.15,56.68 L31.34,57.21 L31.56,57.73 L31.78,58.25 L32.02,58.77 L32.28,59.27 L32.55,59.77 L32.83,60.26 L33.13,60.75 L33.44,61.22 L33.77,61.68 L34.11,62.14 L34.46,62.59 Z" />
</svg>
